<svg width="13" height="11" viewBox="0 0 13 11" fill="none" xmlns="http://www.w3.org/2000/svg">
    <path d="M13 6.5V10.0455C13 10.1231 12.9847 10.1999 12.955 10.2716C12.9253 10.3433 12.8818 10.4084 12.8269 10.4633C12.7721 10.5182 12.7069 10.5617 12.6352 10.5914C12.5635 10.6211 12.4867 10.6364 12.4091 10.6364H0.590909C0.51331 10.6364 0.43647 10.6211 0.364778 10.5914C0.293085 10.5617 0.227944 10.5182 0.173073 10.4633C0.118202 10.4084 0.0746761 10.3433 0.0449801 10.2716C0.0152842 10.1999 0 10.1231 0 10.0455V6.5C0.313438 6.5 0.614038 6.37549 0.835672 6.15385C1.05731 5.93222 1.18182 5.63162 1.18182 5.31818C1.18182 5.00474 1.05731 4.70414 0.835672 4.48251C0.614038 4.26088 0.313438 4.13636 0 4.13636V0.590909C0 0.51331 0.0152842 0.43647 0.0449801 0.364778C0.0746761 0.293086 0.118202 0.227944 0.173073 0.173073C0.227944 0.118202 0.293085 0.0746761 0.364778 0.0449801C0.43647 0.0152842 0.51331 -2.27342e-09 0.590909 0H12.4091C12.4867 -2.27342e-09 12.5635 0.0152842 12.6352 0.0449801C12.7069 0.0746761 12.7721 0.118202 12.8269 0.173073C12.8818 0.227944 12.9253 0.293086 12.955 0.364778C12.9847 0.43647 13 0.51331 13 0.590909V4.13636C12.6866 4.13636 12.386 4.26088 12.1643 4.48251C11.9427 4.70414 11.8182 5.00474 11.8182 5.31818C11.8182 5.63162 11.9427 5.93222 12.1643 6.15385C12.386 6.37549 12.6866 6.5 13 6.5ZM11.8182 7.09091C11.284 6.79545 10.6364 6.34814 10.6364 5.31818C10.6364 4.28823 11.284 3.84091 11.8182 3.54545V1.18182H1.18182V3.54545C1.77273 3.84091 2.36364 4.35145 2.36364 5.31818C2.36364 6.28491 1.77273 6.79545 1.18182 7.09091V9.45455H11.8182V7.09091ZM4.13636 2.95455H5.31818V7.68182H4.13636V2.95455Z" fill="#FF5D5D"/>
</svg>
